# xmcd
#
# Track frame offsets:
#       150
#       14375
#       25563
#       41097
#       53029
#       67047
#       78973
#       88781
#       99996
#       113311
#       128818
#       139134
#       152768
#       169657
#       182891
#       193913
#       205551
#       219270
#       231147
#       243023
#
# Disc length: 3405 seconds
#
# Revision: 1
# Processed by: cddbd v1.4PL0 Copyright (c) Steve Scherf et al.
# Submitted via: CD-DA_X-Tractor v0.21
#
DISCID=fd0d4b14
DTITLE=Conway Twitty - The Best of Conway Twitty
DYEAR=1900
DGENRE=
TTITLE0=You've never been this far before
TTITLE1=It's only make believe
TTITLE2=Touch the hand
TTITLE3=Lying here with Linda on my mind
TTITLE4=Fifteen years ago
TTITLE5=She needs someone to hold her
TTITLE6=I'll try
TTITLE7=Hello Darlin'
TTITLE8=All the good is gone
TTITLE9=On our last date
TTITLE10=I can't believe she gives it all to me
TTITLE11=Play the games that daddies play
TTITLE12=Don't cry Joni
TTITLE13=Danny boy
TTITLE14=As soon as I hang up the phone
TTITLE15=To see my angel cry
TTITLE16=Baby's gone
TTITLE17=I'm not through loving you yet
TTITLE18=I can't see me without you
TTITLE19=I've hurt her more than she loves me
EXTD=
EXTT0=
EXTT1=
EXTT2=
EXTT3=
EXTT4=
EXTT5=
EXTT6=
EXTT7=
EXTT8=
EXTT9=
EXTT10=
EXTT11=
EXTT12=
EXTT13=
EXTT14=
EXTT15=
EXTT16=
EXTT17=
EXTT18=
EXTT19=
PLAYORDER=
